<svg width="64" height="64" viewBox="0 0 64 64" fill="none" xmlns="http://www.w3.org/2000/svg">
<rect width="64" height="64" rx="32" fill="#D3245C"/>
<path d="M23.8961 20.6039C23.4696 20.2064 22.9055 19.9901 22.3226 20.0004C21.7397 20.0106 21.1835 20.2468 20.7713 20.659C20.359 21.0712 20.1229 21.6274 20.1126 22.2103C20.1023 22.7932 20.3187 23.3574 20.7161 23.7839L28.8761 31.9439L20.7161 40.1039C20.4951 40.3099 20.3178 40.5583 20.1948 40.8343C20.0718 41.1103 20.0057 41.4082 20.0004 41.7103C19.995 42.0124 20.0506 42.3125 20.1638 42.5927C20.2769 42.8728 20.4454 43.1273 20.659 43.341C20.8727 43.5546 21.1272 43.7231 21.4073 43.8362C21.6875 43.9494 21.9876 44.005 22.2897 43.9997C22.5918 43.9943 22.8897 43.9282 23.1657 43.8052C23.4417 43.6822 23.6901 43.5049 23.8961 43.2839L32.0561 35.1239L40.2161 43.2839C40.4221 43.5049 40.6705 43.6822 40.9465 43.8052C41.2225 43.9282 41.5205 43.9943 41.8226 43.9997C42.1247 44.005 42.4248 43.9494 42.7049 43.8362C42.9851 43.7231 43.2396 43.5546 43.4532 43.341C43.6669 43.1273 43.8353 42.8728 43.9485 42.5927C44.0617 42.3125 44.1172 42.0124 44.1119 41.7103C44.1066 41.4082 44.0404 41.1103 43.9175 40.8343C43.7945 40.5583 43.6172 40.3099 43.3961 40.1039L35.2361 31.9439L43.3961 23.7839C43.7936 23.3574 44.0099 22.7932 43.9997 22.2103C43.9894 21.6274 43.7532 21.0712 43.341 20.659C42.9288 20.2468 42.3726 20.0106 41.7897 20.0004C41.2068 19.9901 40.6427 20.2064 40.2161 20.6039L32.0561 28.7639L23.8961 20.6039Z" fill="white"/>
</svg>
