<svg width="25" height="24" viewBox="0 0 25 24" fill="none" xmlns="http://www.w3.org/2000/svg">
<g clip-path="url(#clip0_3722_8)">
<path d="M12.5 24C5.885 24 0.5 18.62 0.5 12.005C0.5 5.39 5.885 0.0100021 12.5 0.0100021C19.115 0.0100021 24.495 5.39 24.495 12.005C24.495 18.62 19.115 24 12.5 24ZM12.5 1.42C6.665 1.42 1.915 6.17 1.915 12.005C1.915 17.84 6.665 22.59 12.5 22.59C18.335 22.59 23.085 17.84 23.085 12.005C23.085 6.17 18.335 1.42 12.5 1.42Z" fill="white"/>
<path d="M8.78518 18.445C8.57518 18.445 8.36518 18.39 8.17018 18.28C7.78518 18.06 7.55518 17.66 7.55518 17.215V6.785C7.55518 6.34 7.78518 5.945 8.17018 5.72C8.55518 5.5 9.01518 5.5 9.40018 5.72L18.4352 10.935C18.8202 11.155 19.0502 11.555 19.0502 12C19.0502 12.445 18.8202 12.84 18.4352 13.065L9.40018 18.28C9.21018 18.39 8.99518 18.445 8.78518 18.445ZM8.97018 7.1V16.9L17.4552 12L8.97018 7.1Z" fill="white"/>
</g>
<defs>
<clipPath id="clip0_3722_8">
<rect width="24" height="24" fill="white" transform="translate(0.5)"/>
</clipPath>
</defs>
</svg>
